<svg xmlns="http://www.w3.org/2000/svg" width="24" height="24" viewBox="0 0 24 24">
    <g fill="#FF3B30" fill-rule="evenodd">
        <path d="M20.346 15.502a.325.325 0 0 1-.028.108l-.013.041a10.875 10.875 0 0 1-7.086 6.124c-.508.143-1.076.3-1.256.348-.179-.048-.747-.205-1.257-.348a10.864 10.864 0 0 1-7.073-6.098l-.023-.066a.342.342 0 0 1-.03-.11V5.125c0-.207.17-.375.377-.375 2.9 0 5.649-1.092 7.745-3.079a.333.333 0 0 1 .235-.09c.092 0 .187.032.26.095a11.2 11.2 0 0 0 7.74 3.074c.209 0 .39.176.41.375v10.378zm.58-10.404c-.048-.52-.482-.928-.99-.928-2.75 0-5.357-1.035-7.348-2.922-.384-.335-.954-.329-1.292.008A10.618 10.618 0 0 1 3.957 4.17.957.957 0 0 0 3 5.124v10.378c0 .129.034.222.063.304l.029.079a11.453 11.453 0 0 0 7.459 6.448c1.34.376 1.362.376 1.412.376.05 0 .074 0 1.412-.376a11.455 11.455 0 0 0 7.46-6.448l.03-.082c.029-.08.062-.173.062-.301l-.001-10.404z"/>
        <path d="M11.933 20.956l.666-.2a9.684 9.684 0 0 0 6.338-5.387V5.756a12.22 12.22 0 0 1-7.004-2.66v17.86z"/>
    </g>
</svg>
